<?xml version="1.0" encoding="utf-8"?>
<!-- Generator: Adobe Illustrator 21.0.0, SVG Export Plug-In . SVG Version: 6.00 Build 0)  -->
<svg version="1.1" id="Layer_1" xmlns="http://www.w3.org/2000/svg" xmlns:xlink="http://www.w3.org/1999/xlink" x="0px" y="0px"
	 viewBox="0 0 486.5 255.8" style="enable-background:new 0 0 486.5 255.8;" xml:space="preserve">
<style type="text/css">
	.st0{fill:#FFFFFF;}
	.st1{fill:#262626;stroke:#000000;stroke-width:0.2;}
	.st2{fill:#0D0D0D;stroke:#000000;stroke-width:0.2;}
</style>
<g>
	<g>
		<rect x="0.5" y="137.7" class="st0" width="486" height="19.7"/>
		<path class="st0" d="M243.5,147.6"/>
	</g>
	<g>
		<rect x="0.5" y="177.1" class="st0" width="486" height="19.7"/>
		<path class="st0" d="M243.5,186.9"/>
	</g>
	<g>
		<rect x="0.5" y="216.4" class="st0" width="486" height="19.7"/>
		<path class="st0" d="M243.5,226.3"/>
	</g>
	<g>
		<rect x="194.9" y="19.7" class="st0" width="291.6" height="19.7"/>
		<path class="st0" d="M340.7,29.5"/>
	</g>
	<g>
		<rect x="194.9" y="59" class="st0" width="291.6" height="19.7"/>
		<path class="st0" d="M340.7,68.9"/>
	</g>
	<g>
		<rect x="194.9" y="98.4" class="st0" width="291.6" height="19.7"/>
		<path class="st0" d="M340.7,108.2"/>
	</g>
</g>
<g>
	<g>
		<rect x="0.5" y="157.4" class="st1" width="486" height="19.7"/>
		<path class="st1" d="M243.5,167.2"/>
	</g>
	<g>
		<rect x="0.5" y="196.8" class="st1" width="486" height="19.7"/>
		<path class="st1" d="M243.5,206.6"/>
	</g>
	<g>
		<rect x="0.5" y="236.1" class="st1" width="486" height="19.7"/>
		<path class="st1" d="M243.5,246"/>
	</g>
	<g>
		<rect x="194.9" class="st1" width="291.6" height="19.7"/>
		<path class="st1" d="M340.7,9.8"/>
	</g>
	<g>
		<rect x="194.9" y="39.4" class="st1" width="291.6" height="19.7"/>
		<path class="st1" d="M340.7,49.2"/>
	</g>
	<g>
		<rect x="194.9" y="78.7" class="st1" width="291.6" height="19.7"/>
		<path class="st1" d="M340.7,88.5"/>
	</g>
	<g>
		<rect x="194.9" y="118.1" class="st1" width="291.6" height="19.7"/>
		<path class="st1" d="M340.7,127.9"/>
	</g>
</g>
<g>
	<rect x="0.5" class="st2" width="194.4" height="137.7"/>
	<path class="st2" d="M97.7,68.9"/>
</g>
<g>
	<g>
		<g>
			<path class="st0" d="M13.7,11.3"/>
			<polygon class="st0" points="9.6,17 11.1,12.2 7,9.2 12.1,9.2 13.7,4.3 15.3,9.2 20.4,9.2 16.2,12.2 17.8,17 13.7,14 			"/>
		</g>
		<g>
			<path class="st0" d="M30.5,25.8"/>
			<polygon class="st0" points="26.4,31.5 27.9,26.6 23.8,23.6 28.9,23.6 30.5,18.8 32.1,23.6 37.2,23.6 33,26.6 34.6,31.5 
				30.5,28.5 			"/>
		</g>
		<g>
			<path class="st0" d="M47.3,11.3"/>
			<polygon class="st0" points="43.2,17 44.7,12.2 40.6,9.2 45.7,9.2 47.3,4.3 48.9,9.2 54,9.2 49.8,12.2 51.4,17 47.3,14 			"/>
		</g>
		<g>
			<path class="st0" d="M64.1,25.8"/>
			<polygon class="st0" points="60,31.5 61.6,26.6 57.4,23.6 62.5,23.6 64.1,18.8 65.7,23.6 70.8,23.6 66.7,26.6 68.2,31.5 
				64.1,28.5 			"/>
		</g>
		<g>
			<path class="st0" d="M80.9,11.3"/>
			<polygon class="st0" points="76.8,17 78.4,12.2 74.2,9.2 79.3,9.2 80.9,4.3 82.5,9.2 87.6,9.2 83.5,12.2 85,17 80.9,14 			"/>
		</g>
		<g>
			<path class="st0" d="M97.7,25.8"/>
			<polygon class="st0" points="93.6,31.5 95.2,26.6 91,23.6 96.1,23.6 97.7,18.8 99.3,23.6 104.4,23.6 100.3,26.6 101.8,31.5 
				97.7,28.5 			"/>
		</g>
		<g>
			<path class="st0" d="M114.5,11.3"/>
			<polygon class="st0" points="110.4,17 112,12.2 107.8,9.2 112.9,9.2 114.5,4.3 116.1,9.2 121.2,9.2 117.1,12.2 118.7,17 
				114.5,14 			"/>
		</g>
		<g>
			<path class="st0" d="M131.3,25.8"/>
			<polygon class="st0" points="127.2,31.5 128.8,26.6 124.6,23.6 129.8,23.6 131.3,18.8 132.9,23.6 138,23.6 133.9,26.6 
				135.5,31.5 131.3,28.5 			"/>
		</g>
		<g>
			<path class="st0" d="M148.1,11.3"/>
			<polygon class="st0" points="144,17 145.6,12.2 141.5,9.2 146.6,9.2 148.1,4.3 149.7,9.2 154.8,9.2 150.7,12.2 152.3,17 
				148.1,14 			"/>
		</g>
		<g>
			<path class="st0" d="M164.9,25.8"/>
			<polygon class="st0" points="160.8,31.5 162.4,26.6 158.3,23.6 163.4,23.6 164.9,18.8 166.5,23.6 171.6,23.6 167.5,26.6 
				169.1,31.5 164.9,28.5 			"/>
		</g>
		<g>
			<path class="st0" d="M181.8,11.3"/>
			<polygon class="st0" points="177.6,17 179.2,12.2 175.1,9.2 180.2,9.2 181.8,4.3 183.3,9.2 188.4,9.2 184.3,12.2 185.9,17 
				181.8,14 			"/>
		</g>
	</g>
	<g>
		<g>
			<path class="st0" d="M13.7,40.4"/>
			<polygon class="st0" points="9.6,46 11.1,41.2 7,38.2 12.1,38.2 13.7,33.3 15.3,38.2 20.4,38.2 16.2,41.2 17.8,46.1 13.7,43 			
				"/>
		</g>
		<g>
			<path class="st0" d="M30.5,54.9"/>
			<polygon class="st0" points="26.4,60.5 27.9,55.7 23.8,52.7 28.9,52.7 30.5,47.8 32.1,52.7 37.2,52.7 33,55.7 34.6,60.5 
				30.5,57.5 			"/>
		</g>
		<g>
			<path class="st0" d="M47.3,40.4"/>
			<polygon class="st0" points="43.2,46 44.7,41.2 40.6,38.2 45.7,38.2 47.3,33.3 48.9,38.2 54,38.2 49.8,41.2 51.4,46.1 47.3,43 
							"/>
		</g>
		<g>
			<path class="st0" d="M64.1,54.9"/>
			<polygon class="st0" points="60,60.5 61.6,55.7 57.4,52.7 62.5,52.7 64.1,47.8 65.7,52.7 70.8,52.7 66.7,55.7 68.2,60.5 
				64.1,57.5 			"/>
		</g>
		<g>
			<path class="st0" d="M80.9,40.4"/>
			<polygon class="st0" points="76.8,46 78.4,41.2 74.2,38.2 79.3,38.2 80.9,33.3 82.5,38.2 87.6,38.2 83.5,41.2 85,46.1 80.9,43 
							"/>
		</g>
		<g>
			<path class="st0" d="M97.7,54.9"/>
			<polygon class="st0" points="93.6,60.5 95.2,55.7 91,52.7 96.1,52.7 97.7,47.8 99.3,52.7 104.4,52.7 100.3,55.7 101.8,60.5 
				97.7,57.5 			"/>
		</g>
		<g>
			<path class="st0" d="M114.5,40.4"/>
			<polygon class="st0" points="110.4,46 112,41.2 107.8,38.2 112.9,38.2 114.5,33.3 116.1,38.2 121.2,38.2 117.1,41.2 118.7,46.1 
				114.5,43 			"/>
		</g>
		<g>
			<path class="st0" d="M131.3,54.9"/>
			<polygon class="st0" points="127.2,60.5 128.8,55.7 124.6,52.7 129.8,52.7 131.3,47.8 132.9,52.7 138,52.7 133.9,55.7 
				135.5,60.5 131.3,57.5 			"/>
		</g>
		<g>
			<path class="st0" d="M148.1,40.4"/>
			<polygon class="st0" points="144,46 145.6,41.2 141.5,38.2 146.6,38.2 148.1,33.3 149.7,38.2 154.8,38.2 150.7,41.2 152.3,46.1 
				148.1,43 			"/>
		</g>
		<g>
			<path class="st0" d="M164.9,54.9"/>
			<polygon class="st0" points="160.8,60.5 162.4,55.7 158.3,52.7 163.4,52.7 164.9,47.8 166.5,52.7 171.6,52.7 167.5,55.7 
				169.1,60.5 164.9,57.5 			"/>
		</g>
		<g>
			<path class="st0" d="M181.8,40.4"/>
			<polygon class="st0" points="177.6,46 179.2,41.2 175.1,38.2 180.2,38.2 181.8,33.3 183.3,38.2 188.4,38.2 184.3,41.2 
				185.9,46.1 181.8,43 			"/>
		</g>
	</g>
	<g>
		<g>
			<path class="st0" d="M13.7,69.5"/>
			<polygon class="st0" points="9.6,75.2 11.1,70.3 7,67.3 12.1,67.3 13.7,62.5 15.3,67.3 20.4,67.3 16.2,70.3 17.8,75.2 13.7,72.2 
							"/>
		</g>
		<g>
			<path class="st0" d="M30.5,84"/>
			<polygon class="st0" points="26.4,89.6 27.9,84.8 23.8,81.8 28.9,81.8 30.5,76.9 32.1,81.8 37.2,81.8 33,84.8 34.6,89.6 
				30.5,86.6 			"/>
		</g>
		<g>
			<path class="st0" d="M47.3,69.5"/>
			<polygon class="st0" points="43.2,75.2 44.7,70.3 40.6,67.3 45.7,67.3 47.3,62.5 48.9,67.3 54,67.3 49.8,70.3 51.4,75.2 
				47.3,72.2 			"/>
		</g>
		<g>
			<path class="st0" d="M64.1,84"/>
			<polygon class="st0" points="60,89.6 61.6,84.8 57.4,81.8 62.5,81.8 64.1,76.9 65.7,81.8 70.8,81.8 66.7,84.8 68.2,89.6 
				64.1,86.6 			"/>
		</g>
		<g>
			<path class="st0" d="M80.9,69.5"/>
			<polygon class="st0" points="76.8,75.2 78.4,70.3 74.2,67.3 79.3,67.3 80.9,62.5 82.5,67.3 87.6,67.3 83.5,70.3 85,75.2 
				80.9,72.2 			"/>
		</g>
		<g>
			<path class="st0" d="M97.7,84"/>
			<polygon class="st0" points="93.6,89.6 95.2,84.8 91,81.8 96.1,81.8 97.7,76.9 99.3,81.8 104.4,81.8 100.3,84.8 101.8,89.6 
				97.7,86.6 			"/>
		</g>
		<g>
			<path class="st0" d="M114.5,69.5"/>
			<polygon class="st0" points="110.4,75.2 112,70.3 107.8,67.3 112.9,67.3 114.5,62.5 116.1,67.3 121.2,67.3 117.1,70.3 
				118.7,75.2 114.5,72.2 			"/>
		</g>
		<g>
			<path class="st0" d="M131.3,84"/>
			<polygon class="st0" points="127.2,89.6 128.8,84.8 124.6,81.8 129.8,81.8 131.3,76.9 132.9,81.8 138,81.8 133.9,84.8 
				135.5,89.6 131.3,86.6 			"/>
		</g>
		<g>
			<path class="st0" d="M148.1,69.5"/>
			<polygon class="st0" points="144,75.2 145.6,70.3 141.5,67.3 146.6,67.3 148.1,62.5 149.7,67.3 154.8,67.3 150.7,70.3 
				152.3,75.2 148.1,72.2 			"/>
		</g>
		<g>
			<path class="st0" d="M164.9,84"/>
			<polygon class="st0" points="160.8,89.6 162.4,84.8 158.3,81.8 163.4,81.8 164.9,76.9 166.5,81.8 171.6,81.8 167.5,84.8 
				169.1,89.6 164.9,86.6 			"/>
		</g>
		<g>
			<path class="st0" d="M181.8,69.5"/>
			<polygon class="st0" points="177.6,75.2 179.2,70.3 175.1,67.3 180.2,67.3 181.8,62.5 183.3,67.3 188.4,67.3 184.3,70.3 
				185.9,75.2 181.8,72.2 			"/>
		</g>
	</g>
	<g>
		<g>
			<path class="st0" d="M13.7,98.6"/>
			<polygon class="st0" points="9.6,104.3 11.1,99.4 7,96.4 12.1,96.4 13.7,91.6 15.3,96.4 20.4,96.4 16.2,99.4 17.8,104.3 
				13.7,101.3 			"/>
		</g>
		<g>
			<path class="st0" d="M30.5,113.1"/>
			<polygon class="st0" points="26.4,118.8 27.9,113.9 23.8,110.9 28.9,110.9 30.5,106 32.1,110.9 37.2,110.9 33,113.9 34.6,118.8 
				30.5,115.8 			"/>
		</g>
		<g>
			<path class="st0" d="M47.3,98.6"/>
			<polygon class="st0" points="43.2,104.3 44.7,99.4 40.6,96.4 45.7,96.4 47.3,91.6 48.9,96.4 54,96.4 49.8,99.4 51.4,104.3 
				47.3,101.3 			"/>
		</g>
		<g>
			<path class="st0" d="M64.1,113.1"/>
			<polygon class="st0" points="60,118.8 61.6,113.9 57.4,110.9 62.5,110.9 64.1,106 65.7,110.9 70.8,110.9 66.7,113.9 68.2,118.8 
				64.1,115.8 			"/>
		</g>
		<g>
			<path class="st0" d="M80.9,98.6"/>
			<polygon class="st0" points="76.8,104.3 78.4,99.4 74.2,96.4 79.3,96.4 80.9,91.6 82.5,96.4 87.6,96.4 83.5,99.4 85,104.3 
				80.9,101.3 			"/>
		</g>
		<g>
			<path class="st0" d="M97.7,113.1"/>
			<polygon class="st0" points="93.6,118.8 95.2,113.9 91,110.9 96.1,110.9 97.7,106 99.3,110.9 104.4,110.9 100.3,113.9 
				101.8,118.8 97.7,115.8 			"/>
		</g>
		<g>
			<path class="st0" d="M114.5,98.6"/>
			<polygon class="st0" points="110.4,104.3 112,99.4 107.8,96.4 112.9,96.4 114.5,91.6 116.1,96.4 121.2,96.4 117.1,99.4 
				118.7,104.3 114.5,101.3 			"/>
		</g>
		<g>
			<path class="st0" d="M131.3,113.1"/>
			<polygon class="st0" points="127.2,118.8 128.8,113.9 124.6,110.9 129.8,110.9 131.3,106 132.9,110.9 138,110.9 133.9,113.9 
				135.5,118.8 131.3,115.8 			"/>
		</g>
		<g>
			<path class="st0" d="M148.1,98.6"/>
			<polygon class="st0" points="144,104.3 145.6,99.4 141.5,96.4 146.6,96.4 148.1,91.6 149.7,96.4 154.8,96.4 150.7,99.4 
				152.3,104.3 148.1,101.3 			"/>
		</g>
		<g>
			<path class="st0" d="M164.9,113.1"/>
			<polygon class="st0" points="160.8,118.8 162.4,113.9 158.3,110.9 163.4,110.9 164.9,106 166.5,110.9 171.6,110.9 167.5,113.9 
				169.1,118.8 164.9,115.8 			"/>
		</g>
		<g>
			<path class="st0" d="M181.8,98.6"/>
			<polygon class="st0" points="177.6,104.3 179.2,99.4 175.1,96.4 180.2,96.4 181.8,91.6 183.3,96.4 188.4,96.4 184.3,99.4 
				185.9,104.3 181.8,101.3 			"/>
		</g>
	</g>
	<g>
		<path class="st0" d="M13.7,127.7"/>
		<polygon class="st0" points="9.6,133.4 11.1,128.5 7,125.5 12.1,125.5 13.7,120.7 15.3,125.5 20.4,125.5 16.2,128.5 17.8,133.4 
			13.7,130.4 		"/>
	</g>
	<g>
		<path class="st0" d="M47.3,127.7"/>
		<polygon class="st0" points="43.2,133.4 44.7,128.5 40.6,125.5 45.7,125.5 47.3,120.7 48.9,125.5 54,125.5 49.8,128.5 51.4,133.4 
			47.3,130.4 		"/>
	</g>
	<g>
		<path class="st0" d="M80.9,127.7"/>
		<polygon class="st0" points="76.8,133.4 78.4,128.5 74.2,125.5 79.3,125.5 80.9,120.7 82.5,125.5 87.6,125.5 83.5,128.5 85,133.4 
			80.9,130.4 		"/>
	</g>
	<g>
		<path class="st0" d="M114.5,127.7"/>
		<polygon class="st0" points="110.4,133.4 112,128.5 107.8,125.5 112.9,125.5 114.5,120.7 116.1,125.5 121.2,125.5 117.1,128.5 
			118.7,133.4 114.5,130.4 		"/>
	</g>
	<g>
		<path class="st0" d="M148.1,127.7"/>
		<polygon class="st0" points="144,133.4 145.6,128.5 141.5,125.5 146.6,125.5 148.1,120.7 149.7,125.5 154.8,125.5 150.7,128.5 
			152.3,133.4 148.1,130.4 		"/>
	</g>
	<g>
		<path class="st0" d="M181.8,127.7"/>
		<polygon class="st0" points="177.6,133.4 179.2,128.5 175.1,125.5 180.2,125.5 181.8,120.7 183.3,125.5 188.4,125.5 184.3,128.5 
			185.9,133.4 181.8,130.4 		"/>
	</g>
</g>
</svg>
