<svg xmlns="http://www.w3.org/2000/svg" id="Layer_1" viewBox="0 0 486.5 255.8" aria-labelledby="flagTitle flagDesc" role="img"><style>.st0{fill:#fff}.st1,.st2{fill:#262626;stroke:#000;stroke-width:.2}.st2{fill:#0d0d0d}</style><title id="flagTitle">US flag</title><desc id="flagDesc">An illustrated grayscale US Flag</desc><path d="M.5 137.7h486v19.7H.5zM.5 177.1h486v19.7H.5zM.5 216.4h486v19.7H.5zM194.9 19.7h291.6v19.7H194.9zM194.9 59h291.6v19.7H194.9zM194.9 98.4h291.6v19.7H194.9z" class="st0"/><g><path d="M.5 157.4h486v19.7H.5zM.5 196.8h486v19.7H.5zM.5 236.1h486v19.7H.5zM194.9 0h291.6v19.7H194.9zM194.9 39.4h291.6v19.7H194.9zM194.9 78.7h291.6v19.7H194.9zM194.9 118.1h291.6v19.7H194.9z" class="st1"/></g><g><path d="M.5 0h194.4v137.7H.5z" class="st2"/></g><g><path d="M9.6 17l1.5-4.8-4.1-3h5.1l1.6-4.9 1.6 4.9h5.1l-4.2 3 1.6 4.8-4.1-3zM26.4 31.5l1.5-4.9-4.1-3h5.1l1.6-4.8 1.6 4.8h5.1l-4.2 3 1.6 4.9-4.1-3zM43.2 17l1.5-4.8-4.1-3h5.1l1.6-4.9 1.6 4.9H54l-4.2 3 1.6 4.8-4.1-3zM60 31.5l1.6-4.9-4.2-3h5.1l1.6-4.8 1.6 4.8h5.1l-4.1 3 1.5 4.9-4.1-3zM76.8 17l1.6-4.8-4.2-3h5.1l1.6-4.9 1.6 4.9h5.1l-4.1 3L85 17l-4.1-3zM93.6 31.5l1.6-4.9-4.2-3h5.1l1.6-4.8 1.6 4.8h5.1l-4.1 3 1.5 4.9-4.1-3zM110.4 17l1.6-4.8-4.2-3h5.1l1.6-4.9 1.6 4.9h5.1l-4.1 3 1.6 4.8-4.2-3zM127.2 31.5l1.6-4.9-4.2-3h5.2l1.5-4.8 1.6 4.8h5.1l-4.1 3 1.6 4.9-4.2-3zM144 17l1.6-4.8-4.1-3h5.1l1.5-4.9 1.6 4.9h5.1l-4.1 3 1.6 4.8-4.2-3zM160.8 31.5l1.6-4.9-4.1-3h5.1l1.5-4.8 1.6 4.8h5.1l-4.1 3 1.6 4.9-4.2-3zM177.6 17l1.6-4.8-4.1-3h5.1l1.6-4.9 1.5 4.9h5.1l-4.1 3 1.6 4.8-4.1-3z" class="st0"/><g><path d="M9.6 46l1.5-4.8-4.1-3h5.1l1.6-4.9 1.6 4.9h5.1l-4.2 3 1.6 4.9-4.1-3.1zM26.4 60.5l1.5-4.8-4.1-3h5.1l1.6-4.9 1.6 4.9h5.1l-4.2 3 1.6 4.8-4.1-3zM43.2 46l1.5-4.8-4.1-3h5.1l1.6-4.9 1.6 4.9H54l-4.2 3 1.6 4.9-4.1-3.1zM60 60.5l1.6-4.8-4.2-3h5.1l1.6-4.9 1.6 4.9h5.1l-4.1 3 1.5 4.8-4.1-3zM76.8 46l1.6-4.8-4.2-3h5.1l1.6-4.9 1.6 4.9h5.1l-4.1 3 1.5 4.9-4.1-3.1zM93.6 60.5l1.6-4.8-4.2-3h5.1l1.6-4.9 1.6 4.9h5.1l-4.1 3 1.5 4.8-4.1-3zM110.4 46l1.6-4.8-4.2-3h5.1l1.6-4.9 1.6 4.9h5.1l-4.1 3 1.6 4.9-4.2-3.1zM127.2 60.5l1.6-4.8-4.2-3h5.2l1.5-4.9 1.6 4.9h5.1l-4.1 3 1.6 4.8-4.2-3zM144 46l1.6-4.8-4.1-3h5.1l1.5-4.9 1.6 4.9h5.1l-4.1 3 1.6 4.9-4.2-3.1zM160.8 60.5l1.6-4.8-4.1-3h5.1l1.5-4.9 1.6 4.9h5.1l-4.1 3 1.6 4.8-4.2-3zM177.6 46l1.6-4.8-4.1-3h5.1l1.6-4.9 1.5 4.9h5.1l-4.1 3 1.6 4.9-4.1-3.1z" class="st0"/></g><g><path d="M9.6 75.2l1.5-4.9-4.1-3h5.1l1.6-4.8 1.6 4.8h5.1l-4.2 3 1.6 4.9-4.1-3zM26.4 89.6l1.5-4.8-4.1-3h5.1l1.6-4.9 1.6 4.9h5.1l-4.2 3 1.6 4.8-4.1-3zM43.2 75.2l1.5-4.9-4.1-3h5.1l1.6-4.8 1.6 4.8H54l-4.2 3 1.6 4.9-4.1-3zM60 89.6l1.6-4.8-4.2-3h5.1l1.6-4.9 1.6 4.9h5.1l-4.1 3 1.5 4.8-4.1-3zM76.8 75.2l1.6-4.9-4.2-3h5.1l1.6-4.8 1.6 4.8h5.1l-4.1 3 1.5 4.9-4.1-3zM93.6 89.6l1.6-4.8-4.2-3h5.1l1.6-4.9 1.6 4.9h5.1l-4.1 3 1.5 4.8-4.1-3zM110.4 75.2l1.6-4.9-4.2-3h5.1l1.6-4.8 1.6 4.8h5.1l-4.1 3 1.6 4.9-4.2-3zM127.2 89.6l1.6-4.8-4.2-3h5.2l1.5-4.9 1.6 4.9h5.1l-4.1 3 1.6 4.8-4.2-3zM144 75.2l1.6-4.9-4.1-3h5.1l1.5-4.8 1.6 4.8h5.1l-4.1 3 1.6 4.9-4.2-3zM160.8 89.6l1.6-4.8-4.1-3h5.1l1.5-4.9 1.6 4.9h5.1l-4.1 3 1.6 4.8-4.2-3zM177.6 75.2l1.6-4.9-4.1-3h5.1l1.6-4.8 1.5 4.8h5.1l-4.1 3 1.6 4.9-4.1-3z" class="st0"/></g><g><path d="M9.6 104.3l1.5-4.9-4.1-3h5.1l1.6-4.8 1.6 4.8h5.1l-4.2 3 1.6 4.9-4.1-3zM26.4 118.8l1.5-4.9-4.1-3h5.1l1.6-4.9 1.6 4.9h5.1l-4.2 3 1.6 4.9-4.1-3zM43.2 104.3l1.5-4.9-4.1-3h5.1l1.6-4.8 1.6 4.8H54l-4.2 3 1.6 4.9-4.1-3zM60 118.8l1.6-4.9-4.2-3h5.1l1.6-4.9 1.6 4.9h5.1l-4.1 3 1.5 4.9-4.1-3zM76.8 104.3l1.6-4.9-4.2-3h5.1l1.6-4.8 1.6 4.8h5.1l-4.1 3 1.5 4.9-4.1-3zM93.6 118.8l1.6-4.9-4.2-3h5.1l1.6-4.9 1.6 4.9h5.1l-4.1 3 1.5 4.9-4.1-3zM110.4 104.3l1.6-4.9-4.2-3h5.1l1.6-4.8 1.6 4.8h5.1l-4.1 3 1.6 4.9-4.2-3zM127.2 118.8l1.6-4.9-4.2-3h5.2l1.5-4.9 1.6 4.9h5.1l-4.1 3 1.6 4.9-4.2-3zM144 104.3l1.6-4.9-4.1-3h5.1l1.5-4.8 1.6 4.8h5.1l-4.1 3 1.6 4.9-4.2-3zM160.8 118.8l1.6-4.9-4.1-3h5.1l1.5-4.9 1.6 4.9h5.1l-4.1 3 1.6 4.9-4.2-3zM177.6 104.3l1.6-4.9-4.1-3h5.1l1.6-4.8 1.5 4.8h5.1l-4.1 3 1.6 4.9-4.1-3z" class="st0"/></g><g><path d="M9.6 133.4l1.5-4.9-4.1-3h5.1l1.6-4.8 1.6 4.8h5.1l-4.2 3 1.6 4.9-4.1-3z" class="st0"/></g><g><path d="M43.2 133.4l1.5-4.9-4.1-3h5.1l1.6-4.8 1.6 4.8H54l-4.2 3 1.6 4.9-4.1-3z" class="st0"/></g><g><path d="M76.8 133.4l1.6-4.9-4.2-3h5.1l1.6-4.8 1.6 4.8h5.1l-4.1 3 1.5 4.9-4.1-3z" class="st0"/></g><g><path d="M110.4 133.4l1.6-4.9-4.2-3h5.1l1.6-4.8 1.6 4.8h5.1l-4.1 3 1.6 4.9-4.2-3z" class="st0"/></g><g><path d="M144 133.4l1.6-4.9-4.1-3h5.1l1.5-4.8 1.6 4.8h5.1l-4.1 3 1.6 4.9-4.2-3z" class="st0"/></g><g><path d="M177.6 133.4l1.6-4.9-4.1-3h5.1l1.6-4.8 1.5 4.8h5.1l-4.1 3 1.6 4.9-4.1-3z" class="st0"/></g></g></svg>