<svg xmlns="http://www.w3.org/2000/svg" xmlns:xlink="http://www.w3.org/1999/xlink" viewBox="0 0 200 200" aria-labelledby="yaliTitle yaliDesc" role="img"><style>.st0{fill:#29abe2}.st1{opacity:.48}.st2{fill:#fff}.st5{fill:#d11242}</style><switch><g id="logo"><title id="yaliTitle">YALI logo</title><desc id="yaliDesc">An illustration of the YALI logo</desc><path d="M100 199.3C45.2 199.3.7 154.7.7 100 .7 45.2 45.2.7 100 .7s99.3 44.6 99.3 99.3c0 54.8-44.5 99.3-99.3 99.3zm0-194C47.8 5.3 5.3 47.8 5.3 100s42.5 94.7 94.7 94.7 94.7-42.5 94.7-94.7S152.2 5.3 100 5.3z" class="st0"/><circle cx="100" cy="100" r="91.7" class="st0"/><path d="M60.4 36.9L75.1 81c1.7 5.1 3.5 11.3 4.7 15.9h.5c1.2-4.6 2.7-10.8 4.4-16.1l12.8-43.9h22.1L99.1 93c-11.3 30.7-18.9 44.4-28.6 52.9-8.3 7.1-16.7 9.8-21.8 10.5L44 138.9c3.6-.8 7.8-2.7 12-5.7 3.9-2.5 8.6-7.4 11.5-13 .7-1.5 1.2-2.7 1.2-3.7 0-.8-.2-2-1-4.1L37.4 36.9h23z"/><path d="M59.4 35.9L74.1 80c1.7 5.1 3.5 11.3 4.7 15.9h.5c1.2-4.6 2.7-10.8 4.4-16.1l12.8-43.9h22.1L98.1 92c-11.3 30.7-18.9 44.4-28.6 52.9-8.3 7.1-16.7 9.8-21.8 10.5L43 137.9c3.6-.8 7.8-2.7 12-5.7 3.9-2.5 8.6-7.4 11.5-13 .7-1.5 1.2-2.7 1.2-3.7 0-.8-.2-2-1-4.1L36.4 35.9h23z" class="st2"/><path d="M110.1 36.8h26l8.4 93h26.6l1.3 24h-51.6l-10.7-117z"/><path d="M109.1 35.8h26l8.4 93h26.6l1.3 24h-51.6l-10.7-117z" class="st2"/><g><path d="M93.3 82.9l14 15.5 19-8.7-10.3 18.2 14.1 15.4-20.5-4.2-10.3 18.1-2.3-20.7-20.4-4.2 19-8.6z" class="st2"/><path d="M95.8 88l11.5 12.6 15.6-7-8.5 14.8 11.6 12.7-16.8-3.5-8.5 14.9-1.9-17-16.7-3.4 15.6-7.1z" class="st2"/><defs><path id="SVGID_1_" d="M95.8 88l11.5 12.6 15.6-7-8.5 14.8 11.6 12.7-16.8-3.5-8.5 14.9-1.9-17-16.7-3.4 15.6-7.1z"/></defs><clipPath id="SVGID_2_"><use overflow="visible" xlink:href="#SVGID_1_"/></clipPath><linearGradient id="SVGID_3_" x1="359.6239" x2="396.9937" y1="-342.2682" y2="-274.8512" gradientTransform="rotate(-24.389 1208.9086 527.37)" gradientUnits="userSpaceOnUse"><stop offset="0" stop-color="#001f5b"/><stop offset=".2565" stop-color="#00407d"/><stop offset=".8198" stop-color="#0092d2"/><stop offset="1" stop-color="#00aeef"/></linearGradient><path fill="url(#SVGID_3_)" d="M144.2 115.9c2.1 4.6 0 10.1-4.6 12.2l-39.3 17.8c-4.6 2.1-10.1 0-12.2-4.6L70.3 102c-2.1-4.6-.1-10.1 4.6-12.2L114.2 72c4.7-2.1 10.1 0 12.2 4.6l17.8 39.3z" clip-path="url(#SVGID_2_)"/><g clip-path="url(#SVGID_2_)"><path d="M69.4 126c27.2-7.4 45.8-20.6 72.1-53.2.6.5 6.8 5.9 13.9 19.1 7 12 14.8 31.7 15.4 32.5-1.2 1.5-12.3 20.7-29.7 27.3-16.4 8.5-39.3 4.4-40 5.7-12.8-15.1-21.9-24.2-31.7-31.4z" class="st2"/><path d="M89.5 145.9c30.2-2.9 48.5-12.4 69.3-43.3-.6-1.6-1.2-3.1-1.8-4.6-21.6 31.4-40 41.5-69.9 45.1.8.9 1.6 1.8 2.4 2.8z" class="st5"/><path d="M100 158.6c31.6.3 49.8-6.2 67.3-34.7-.8-2-1.6-3.9-2.3-5.8-18.3 29.2-36.5 36.5-67.7 37 .8 1.1 1.7 2.3 2.7 3.5z" class="st5"/><path d="M94.5 151.8c30.8-1.4 49.1-9.4 68.2-39.3-.7-1.8-1.4-3.5-2-5.2-19.9 30.4-38.3 39.2-68.8 41.4.9 1.1 1.7 2.1 2.6 3.1z" class="st5"/><path d="M84.9 140.5c29.6-4.3 48.1-14.9 70.4-46.8-.6-1.4-1.1-2.7-1.7-4-23.2 32.3-41.7 43.6-71 48.4.8.8 1.5 1.6 2.3 2.4z" class="st5"/><path d="M74 129.5c.7.6 1.4 1.3 2.1 2 28.6-6.4 47.2-19 72.6-52.4-.5-1.1-1.1-2.1-1.6-3-26 33.6-44.7 46.6-73.1 53.4z" class="st5"/><path fill="#c6093b" d="M143.9 70.6c-27.4 34.1-46.2 47.7-74.1 55.2l2.1 1.8c28.1-7.2 46.8-20.5 73.6-54.4-.5-.9-1.1-1.7-1.6-2.6z"/><path d="M80.4 135.8c29-5.4 47.6-17.1 71.6-49.9-.5-1.2-1.1-2.4-1.6-3.5-24.7 33.1-43.3 45.2-72.1 51.2.7.7 1.4 1.4 2.1 2.2z" class="st5"/></g><g><defs><path id="SVGID_4_" d="M95.8 88l11.5 12.6 15.6-7-8.5 14.8 11.6 12.7-16.8-3.5-8.5 14.9-1.9-17-16.7-3.4 15.6-7.1z"/></defs><clipPath id="SVGID_5_"><use overflow="visible" xlink:href="#SVGID_4_"/></clipPath></g></g><g><defs><path id="SVGID_6_" d="M63.1 31.1c-2.7.5-4.2 2.6-6.7.9-.3 2.4-4 2.2-3.2 5.2-2.7 2.1-5 4.6-6.3 8 .3.5.6 1.3.6 1.7.6 2.4-1.5 4.5-.4 6.9 0 .2.3.3 0 .4 0 .3.2.4.2.7.9.1.1-.6.6-.7 1.4 1.3 1.7 3.7 3.5 4.6.4.4.8.8 1.3 1.1.1.4.7.5.9.7 1.4.3 3.5-1.3 5.2-.2.5-.3 1.1-.4 1.5-.7.2 0 .3-.2.6-.2h.4c.1-.2.2-.4.6-.4.6-.3 1.4-.2 2.2-.2.3.6.8 1 .9 1.9 1.1.1 1.5-.3 2.6-.2.1.7.8.8.9 1.5-.7 1.2-.1 2.6-1.1 3.5 2.2 2.7 3.9 5.7 4.1 10-.7 1.6-2.1 3.5-1.7 5.6.3 1.5 1.8 2.8 2.2 4.4.3 1.3 0 2.7.4 3.9.7 1.8 2.3 2.9 2.4 4.6-.5 1.5 0 2 1.3 2.6 1-.6 2.5-.8 4.3-.7 3-1.5 5.9-4 5.9-7.8.7-.4 1.6-.6 2.2-1.1.3-1.6-.1-2.5-.4-3.9 1.9-2.7 6.2-2.8 4.8-8.3-.8-1.2-.6-3.2-1.3-4.6 1.3-4.8 6-6.6 8.1-10.9.5-1.1 1-2.1 1.5-3.2.3-.6.7-1 .2-1.7 0-.3.1-.4.2-.6-2.1.6-3.8 1-5.8 1.3-.4-.3-.4-1-1.1-.9.2-.5.7-.5.4-1.1-2.3-1.4-3.6-3.8-5-6.1 0-.3-.2-.4-.2-.7v-.2c.2-1.4-.7-1.8-1.3-2.4 0-1.6-1.6-2.7-1.9-4.6.4.1.4.6.7.2.1-1.4.2-2.3-.6-3.2-.6.6-1.7 0-2.2-.2-2.7 2.1-6.3-2.5-8.7-.6.1.7.4 1.5-.4 1.7-1-.2-1.6-.9-2.8-.9-.7-1.9-3.2-1-4.4-2.4 1-.8.4-2 .6-2.8-.9-.2-2.6 0-4.1.2-.1-.3-1.4-.4-1.7-.1z"/></defs><use fill="#29abe2" overflow="visible" xlink:href="#SVGID_6_"/><clipPath id="SVGID_7_"><use overflow="visible" xlink:href="#SVGID_6_"/></clipPath></g></g></switch></svg>